# xmcd CD database file
#
# Track frame offsets:
#	150
#	18374
#	36308
#	52382
#	73538
#	84236
#	98671
#	123602
#	145154
#	159141
#	174677
#	189880
#	214978
#
# Disc length: 3092 seconds
#
# Revision: 0
# Processed by: cddbd v1.5.1PL2 Copyright (c) Steve Scherf et al.
# Submitted via: CDex 1.51
#
DISCID=b10c120d
DTITLE=Dr. Rage and the Uppercuts - Hittin' Wood and Diamond Hard
DYEAR=2005
DGENRE=Blues
TTITLE0=Backbiters and Syndicators
TTITLE1=Hey Yeah
TTITLE2=Cry Baby Cry
TTITLE3=Hey Lil' Sister
TTITLE4=Higher
TTITLE5=Ride on Thru
TTITLE6=September
TTITLE7=Good Mornin' Lil' Schoolgirl
TTITLE8=I Just Wanna Make Love To You
TTITLE9=Hittin' Wood
TTITLE10=Revolutions
TTITLE11=Titus
TTITLE12=The Burden
EXTD=YEAR: 2005
EXTT0=
EXTT1=
EXTT2=
EXTT3=
EXTT4=
EXTT5=
EXTT6=
EXTT7=
EXTT8=
EXTT9=
EXTT10=
EXTT11=
EXTT12=
PLAYORDER=
